<svg width="7" height="5" viewBox="0 0 7 5" fill="none" xmlns="http://www.w3.org/2000/svg">
<path d="M3.03291 4.52268L0.144092 1.34773C0.0684149 1.26451 0.0201995 1.16327 0.00509598 1.05586C-0.0100076 0.948449 0.00862589 0.839321 0.0588131 0.741262C0.109 0.643202 0.188663 0.560274 0.288465 0.502195C0.388267 0.444115 0.504076 0.413289 0.622321 0.41333H5.74209C5.86027 0.413425 5.97598 0.444348 6.07566 0.502481C6.17535 0.560614 6.2549 0.64355 6.30499 0.741584C6.35508 0.839617 6.37365 0.94869 6.35852 1.05604C6.34338 1.16338 6.29518 1.26456 6.21955 1.34773L3.33151 4.52268C3.31326 4.54272 3.29043 4.55884 3.26463 4.5699C3.23883 4.58097 3.21069 4.5867 3.18221 4.5867C3.15372 4.5867 3.12558 4.58097 3.09978 4.5699C3.07398 4.55884 3.05115 4.54272 3.03291 4.52268Z" fill="#767676"/>
</svg>
