<svg width="18" height="18" viewBox="0 0 18 18" fill="none" xmlns="http://www.w3.org/2000/svg">
<path d="M15.4323 11.9109L13.17 11.6526C12.904 11.6214 12.6343 11.6508 12.3813 11.7388C12.1283 11.8267 11.8986 11.9708 11.7093 12.1603L10.0704 13.7992C7.54212 12.513 5.48702 10.4579 4.20082 7.92954L5.84858 6.28177C6.23157 5.89878 6.41862 5.36437 6.35627 4.82105L6.09797 2.57652C6.04766 2.14194 5.8392 1.74107 5.51231 1.45033C5.18543 1.15958 4.76299 0.999287 4.32551 1H2.78464C1.77817 1 0.940924 1.83725 1.00327 2.84372C1.47533 10.4502 7.55869 16.5247 15.1562 16.9967C16.1627 17.0591 16.9999 16.2218 16.9999 15.2154V13.6745C17.0088 12.7749 16.3319 12.0178 15.4323 11.9109Z" fill="white"/>
</svg>
