<svg width="174" height="280" viewBox="0 0 174 280" fill="none" xmlns="http://www.w3.org/2000/svg">
<mask id="mask0_2022_866" style="mask-type:luminance" maskUnits="userSpaceOnUse" x="69" y="170" width="74" height="64">
<path d="M97.0026 233.35L142.242 211.019L114.621 170.116L69.382 192.447L97.0026 233.35Z" fill="white"/>
</mask>
<g mask="url(#mask0_2022_866)">
<path d="M119.094 177.893L123.378 202.232L132.896 206.664C134.797 207.547 139.069 211.168 138.2 212.801C137.331 214.435 131.665 213.43 129.764 212.548L120.237 208.147L96.8494 219.638C94.3698 220.862 91.2912 220.856 88.619 219.604L87.6088 219.139L93.0697 215.372L91.6604 214.703C91.4784 214.605 91.3781 214.413 91.4761 214.258L92.3831 212.552C92.4594 212.407 92.704 212.34 92.8724 212.417L95.531 213.649L101.941 209.226L100.426 208.528C100.244 208.431 100.165 208.228 100.242 208.084L101.148 206.378C101.247 206.222 101.456 206.146 101.638 206.243L104.381 207.513L110.214 203.482L99.5662 198.537C97.2932 197.49 95.1646 196.185 93.2209 194.681L91.2046 196.935C90.1951 198.102 88.5778 198.499 87.2798 197.908L90.3357 192.169C90.2598 192.1 90.1973 192.05 90.1431 191.97L88.7238 190.555C88.2136 190.057 88.6248 189.292 89.3774 189.376L91.4232 189.571C91.5156 189.579 91.608 189.587 91.7003 189.594L94.7345 183.866C96.0462 184.477 96.6883 185.901 96.3169 187.369L95.577 190.225C98.0381 190.777 100.434 191.576 102.72 192.643L113.354 197.568L113.282 190.803L110.539 189.533C110.357 189.435 110.278 189.233 110.355 189.088L111.262 187.382C111.36 187.227 111.582 187.17 111.751 187.248L113.266 187.946L113.202 180.507L110.544 179.276C110.34 179.189 110.261 178.986 110.346 178.811L111.245 177.136C111.329 176.96 111.552 176.904 111.756 176.99L113.151 177.64L113.1 171.293L114.11 171.758C116.768 172.99 118.649 175.302 119.094 177.893Z" fill="#0B417D" fill-opacity="0.5"/>
</g>
<path d="M84.7301 188.352C23.1892 168.738 48.7212 123.593 37.8248 109.745C26.9283 95.8966 0.0647084 95.593 -5.90636 92.7527C-20.8018 85.6672 -24.8169 78.6394 -26.9578 73.8015C-29.1559 68.8342 -25.5511 59.8179 -22.5348 50.2587" stroke="#0B417D" stroke-opacity="0.5" stroke-width="2" stroke-linecap="round" stroke-linejoin="round" stroke-dasharray="6 6"/>
</svg>
