<svg width="18" height="25" viewBox="0 0 18 25" fill="none" xmlns="http://www.w3.org/2000/svg">
<path d="M18 8.9C18 7.7969 17.7672 6.70459 17.3149 5.68546C16.8626 4.66632 16.1997 3.74032 15.364 2.9603C14.5282 2.18029 13.5361 1.56155 12.4442 1.13941C11.3522 0.717272 10.1819 0.5 9 0.5C7.8181 0.5 6.64778 0.717272 5.55585 1.13941C4.46392 1.56155 3.47177 2.18029 2.63604 2.9603C1.80031 3.74032 1.13738 4.66632 0.685084 5.68546C0.232792 6.70459 -1.76116e-08 7.7969 0 8.9C0 10.5644 0.527143 12.1124 1.42071 13.418H1.41043C4.44471 17.852 9 24.5 9 24.5L16.5896 13.418H16.5806C17.5068 12.0696 17.9994 10.5017 18 8.9ZM9 12.5C7.97702 12.5 6.99594 12.1207 6.27259 11.4456C5.54923 10.7705 5.14286 9.85478 5.14286 8.9C5.14286 7.94522 5.54923 7.02955 6.27259 6.35442C6.99594 5.67929 7.97702 5.3 9 5.3C10.023 5.3 11.0041 5.67929 11.7274 6.35442C12.4508 7.02955 12.8571 7.94522 12.8571 8.9C12.8571 9.85478 12.4508 10.7705 11.7274 11.4456C11.0041 12.1207 10.023 12.5 9 12.5Z" fill="#0B417D"/>
</svg>
