<svg width="18" height="19" viewBox="0 0 18 19" fill="none" xmlns="http://www.w3.org/2000/svg">
<path d="M9.25 9.125C8.75272 9.125 8.27581 8.92746 7.92417 8.57583C7.57254 8.22419 7.375 7.74728 7.375 7.25C7.375 6.75272 7.57254 6.27581 7.92417 5.92417C8.27581 5.57254 8.75272 5.375 9.25 5.375C9.74728 5.375 10.2242 5.57254 10.5758 5.92417C10.9275 6.27581 11.125 6.75272 11.125 7.25C11.125 7.49623 11.0765 7.74005 10.9823 7.96753C10.888 8.19502 10.7499 8.40172 10.5758 8.57583C10.4017 8.74994 10.195 8.88805 9.96753 8.98227C9.74005 9.0765 9.49623 9.125 9.25 9.125ZM9.25 2C7.85761 2 6.52226 2.55312 5.53769 3.53769C4.55312 4.52226 4 5.85761 4 7.25C4 11.1875 9.25 17 9.25 17C9.25 17 14.5 11.1875 14.5 7.25C14.5 5.85761 13.9469 4.52226 12.9623 3.53769C11.9777 2.55312 10.6424 2 9.25 2Z" fill="white"/>
</svg>
