<svg width="14" height="15" viewBox="0 0 14 15" fill="none" xmlns="http://www.w3.org/2000/svg">
<path fill-rule="evenodd" clip-rule="evenodd" d="M11.0842 3.26517V5.16625C11.314 5.16625 11.5415 5.21152 11.7539 5.29946C11.9662 5.38741 12.1591 5.51631 12.3216 5.67882C12.4841 5.84132 12.613 6.03424 12.701 6.24656C12.7889 6.45888 12.8342 6.68644 12.8342 6.91625C12.8342 7.14607 12.7889 7.37363 12.701 7.58595C12.613 7.79827 12.4841 7.99119 12.3216 8.15369C12.1591 8.31619 11.9662 8.4451 11.7539 8.53304C11.5415 8.62099 11.314 8.66625 11.0842 8.66625V10.4163C11.0842 11.3776 9.98692 11.9265 9.2175 11.3496L8.01583 10.4478C7.37348 9.96617 6.62559 9.64462 5.83417 9.50975V11.1688C5.83423 11.5501 5.69644 11.9186 5.44619 12.2064C5.19595 12.4941 4.85011 12.6817 4.47244 12.7346C4.09478 12.7874 3.71073 12.702 3.3911 12.494C3.07147 12.286 2.8378 11.9695 2.73317 11.6028L1.81733 8.39675C1.48776 8.00755 1.27328 7.53413 1.198 7.02972C1.12272 6.5253 1.18963 6.00989 1.3912 5.54142C1.59277 5.07294 1.92102 4.66998 2.33904 4.37782C2.75706 4.08566 3.24829 3.91589 3.7575 3.88759L5.518 3.78959C6.37938 3.74174 7.21708 3.49003 7.96217 3.05517L9.3295 2.25717C10.1077 1.80392 11.0842 2.3645 11.0842 3.26517ZM3.28733 9.29509L3.85492 11.2825C3.88223 11.3787 3.94343 11.4618 4.02722 11.5164C4.111 11.571 4.21171 11.5934 4.31075 11.5795C4.40979 11.5657 4.50047 11.5164 4.56604 11.4409C4.63161 11.3654 4.66765 11.2688 4.6675 11.1688V9.41292L3.7575 9.36217C3.59922 9.35263 3.44197 9.33019 3.28733 9.29509ZM9.9175 3.26517L8.54958 4.06375C7.71888 4.54892 6.79206 4.84638 5.83417 4.93525V8.32967C6.87658 8.47317 7.86883 8.87975 8.71583 9.51442L9.9175 10.4163V3.26517ZM4.6675 5.00525L3.82167 5.05192C3.42818 5.07365 3.05713 5.2421 2.78177 5.52402C2.50641 5.80595 2.34674 6.18086 2.33429 6.57475C2.32183 6.96865 2.4575 7.35289 2.7145 7.65165C2.9715 7.95041 3.33117 8.14196 3.7225 8.1885L3.82167 8.19725L4.6675 8.24392V5.00525ZM11.0842 6.33292V7.49959C11.2328 7.49942 11.3759 7.44249 11.484 7.34042C11.5921 7.23836 11.6571 7.09886 11.6659 6.95044C11.6746 6.80201 11.6263 6.65586 11.5308 6.54185C11.4354 6.42784 11.3001 6.35456 11.1524 6.337L11.0842 6.33292Z" fill="white"/>
</svg>
