<svg width="24" height="24" viewBox="0 0 24 24" fill="none" xmlns="http://www.w3.org/2000/svg">
<path d="M10.5 16.9998H11.727C12.2244 16.9997 12.7039 16.8143 13.072 16.4798L18 11.9998M12 13.4998L15.75 13.9998M4.5 7.99979L15.08 2.93979C15.1999 2.88239 15.3301 2.84948 15.4629 2.84299C15.5957 2.8365 15.7285 2.85656 15.8535 2.902C15.9784 2.94744 16.0931 3.01735 16.1907 3.10763C16.2883 3.19791 16.367 3.30675 16.422 3.42779L18.5 7.99979M6 9.99979V7.99979M6 13.9998V14.9998M6 18.9998V20.9998M4 7.99979H20C21.1046 7.99979 22 8.89522 22 9.99979V18.9998C22 20.1044 21.1046 20.9998 20 20.9998H4C2.89543 20.9998 2 20.1044 2 18.9998V9.99979C2 8.89522 2.89543 7.99979 4 7.99979Z" stroke="#0B417D" stroke-opacity="0.8" stroke-width="1.5" stroke-linecap="round" stroke-linejoin="round"/>
</svg>
