<svg width="24" height="24" viewBox="0 0 24 24" fill="none" xmlns="http://www.w3.org/2000/svg">
<path d="M9.98242 19.3809C9.98247 18.2658 10.8869 17.3623 12.002 17.3623C13.117 17.3624 14.0205 18.2658 14.0205 19.3809C14.0205 20.4959 13.117 21.4003 12.002 21.4004C10.8869 21.4004 9.98242 20.4959 9.98242 19.3809Z" stroke="#0B417D" stroke-opacity="0.8" stroke-width="1.2"/>
<path d="M9.98242 12.1426C9.98247 11.0275 10.8869 10.124 12.002 10.124C13.117 10.1241 14.0205 11.0276 14.0205 12.1426C14.0205 13.2576 13.117 14.1621 12.002 14.1621C10.8869 14.1621 9.98242 13.2577 9.98242 12.1426Z" stroke="#0B417D" stroke-opacity="0.8" stroke-width="1.2"/>
<path d="M9.98242 4.9043C9.98247 3.78925 10.8869 2.88574 12.002 2.88574C13.117 2.88579 14.0205 3.78928 14.0205 4.9043C14.0205 6.01936 13.117 6.92378 12.002 6.92383C10.8869 6.92383 9.98242 6.01939 9.98242 4.9043Z" stroke="#0B417D" stroke-opacity="0.8" stroke-width="1.2"/>
</svg>
