<svg width="24" height="24" viewBox="0 0 24 24" fill="none" xmlns="http://www.w3.org/2000/svg">
<path d="M16.75 5.75V6.25H5.57031L5.57129 5.75H16.75ZM4.4209 5.43066C4.44229 5.45842 4.46536 5.48488 4.49023 5.50977C4.51525 5.53478 4.5424 5.55761 4.57031 5.5791V6.15137C4.5688 6.15075 4.56694 6.15101 4.56543 6.15039C4.40515 6.08405 4.25938 5.98594 4.13672 5.86328C4.01425 5.74077 3.91689 5.59558 3.85059 5.43555C3.84998 5.43408 3.84923 5.43213 3.84863 5.43066H4.4209ZM4.48438 4.3584L4.45117 4.3916C4.44069 4.40368 4.43256 4.41806 4.42285 4.43066H3.84863C3.90265 4.29805 3.97698 4.17341 4.07227 4.06348C4.16739 3.95376 4.27999 3.86228 4.40332 3.79004L4.48438 4.3584ZM15.2568 2.64551L5.44922 4.04492L5.37891 3.5498L15.1865 2.14941L15.2568 2.64551ZM16.1846 2.06445C16.3367 2.07698 16.4875 2.10512 16.6348 2.14844C16.9438 2.23939 17.2302 2.39544 17.4736 2.60645C17.7171 2.81761 17.913 3.07887 18.0469 3.37207C18.1107 3.51181 18.1584 3.65773 18.1924 3.80664H17.6748C17.6518 3.72962 17.6253 3.65356 17.5918 3.58008C17.4877 3.35209 17.3359 3.14857 17.1465 2.98438C16.9571 2.82024 16.7345 2.69869 16.4941 2.62793C16.4165 2.60509 16.3371 2.58981 16.2578 2.57812L16.1846 2.06445Z" stroke="#3C6797"/>
<path d="M7 22V22.75V22ZM17 22V22.75V22ZM20 19H20.75H20ZM20 9H20.75H20ZM10 18.25C9.58579 18.25 9.25 18.5858 9.25 19C9.25 19.4142 9.58579 19.75 10 19.75V18.25ZM14 19.75C14.4142 19.75 14.75 19.4142 14.75 19C14.75 18.5858 14.4142 18.25 14 18.25V19.75ZM4 6H3.25V19H4H4.75V6H4ZM4 19H3.25C3.25 19.9946 3.64509 20.9484 4.34835 21.6517L4.87868 21.1213L5.40901 20.591C4.98705 20.169 4.75 19.5967 4.75 19H4ZM4.87868 21.1213L4.34835 21.6517C5.05161 22.3549 6.00544 22.75 7 22.75V22V21.25C6.40326 21.25 5.83097 21.0129 5.40901 20.591L4.87868 21.1213ZM7 22V22.75H17V22V21.25H7V22ZM17 22V22.75C17.9946 22.75 18.9484 22.3549 19.6517 21.6517L19.1213 21.1213L18.591 20.591C18.169 21.0129 17.5967 21.25 17 21.25V22ZM19.1213 21.1213L19.6517 21.6517C20.3549 20.9484 20.75 19.9946 20.75 19H20H19.25C19.25 19.5967 19.0129 20.169 18.591 20.591L19.1213 21.1213ZM20 19H20.75V9H20H19.25V19H20ZM20 9H20.75C20.75 8.00544 20.3549 7.05161 19.6517 6.34835L19.1213 6.87868L18.591 7.40901C19.0129 7.83097 19.25 8.40326 19.25 9H20ZM19.1213 6.87868L19.6517 6.34835C18.9484 5.64509 17.9946 5.25 17 5.25V6V6.75C17.5967 6.75 18.169 6.98705 18.591 7.40901L19.1213 6.87868ZM17 6V5.25H4V6V6.75H17V6ZM4 6H4.75V5H4H3.25V6H4ZM15 13H14.25C14.25 14.2426 13.2426 15.25 12 15.25V16V16.75C14.0711 16.75 15.75 15.0711 15.75 13H15ZM12 16V15.25C10.7574 15.25 9.75 14.2426 9.75 13H9H8.25C8.25 15.0711 9.92893 16.75 12 16.75V16ZM9 13H9.75C9.75 11.7574 10.7574 10.75 12 10.75V10V9.25C9.92893 9.25 8.25 10.9289 8.25 13H9ZM12 10V10.75C13.2426 10.75 14.25 11.7574 14.25 13H15H15.75C15.75 10.9289 14.0711 9.25 12 9.25V10ZM10 19V19.75H14V19V18.25H10V19Z" fill="#3C6797"/>
</svg>
