<svg width="24" height="24" viewBox="0 0 24 24" fill="none" xmlns="http://www.w3.org/2000/svg">
<path fill-rule="evenodd" clip-rule="evenodd" d="M10.65 3.70391C11.45 3.10391 12.55 3.10391 13.35 3.70391L19.85 8.57891C20.417 9.00391 20.75 9.67091 20.75 10.3789V18.5009C20.75 19.0976 20.5129 19.6699 20.091 20.0919C19.669 20.5139 19.0967 20.7509 18.5 20.7509H14.25C14.0511 20.7509 13.8603 20.6719 13.7197 20.5312C13.579 20.3906 13.5 20.1998 13.5 20.0009V17.0009C13.5 16.6031 13.342 16.2215 13.0607 15.9402C12.7794 15.6589 12.3978 15.5009 12 15.5009C11.6022 15.5009 11.2206 15.6589 10.9393 15.9402C10.658 16.2215 10.5 16.6031 10.5 17.0009V20.0009C10.5 20.1998 10.421 20.3906 10.2803 20.5312C10.1397 20.6719 9.94891 20.7509 9.75 20.7509H5.5C4.90326 20.7509 4.33097 20.5139 3.90901 20.0919C3.48705 19.6699 3.25 19.0976 3.25 18.5009V10.3789C3.25 9.67091 3.583 9.00391 4.15 8.57891L10.65 3.70391Z" fill="#0B417D"/>
</svg>
