<svg width="25" height="23" viewBox="0 0 25 23" fill="none" xmlns="http://www.w3.org/2000/svg">
<path d="M24.5456 0.418056C25.0688 0.986981 25.1402 1.79661 24.7597 2.84693C24.3791 3.89725 23.737 4.83817 22.8333 5.66967L19.9615 8.31189L22.8154 19.7342C22.8749 19.942 22.8035 20.1226 22.6014 20.2757L20.3182 21.8512C20.235 21.9169 20.122 21.9497 19.9793 21.9497C19.9317 21.9497 19.8901 21.9442 19.8544 21.9333C19.6761 21.9004 19.5512 21.8129 19.4799 21.6707L14.5033 13.3337L9.88344 17.5843L10.8288 20.7681C10.8883 20.9541 10.8407 21.1236 10.6861 21.2768L8.97374 22.8523C8.86671 22.9508 8.72996 23 8.56348 23H8.52781C8.34944 22.9781 8.20674 22.907 8.09972 22.7867L4.72848 18.651L0.233505 15.5493C0.102699 15.4727 0.0254045 15.3469 0.00162156 15.1718C-0.0102699 15.0296 0.0432417 14.8928 0.162156 14.7615L1.87453 13.1696C1.98155 13.0712 2.1183 13.0219 2.28478 13.0219C2.35613 13.0219 2.4037 13.0274 2.42748 13.0383L5.8879 13.9081L10.5077 9.65762L1.44644 5.07886C1.27996 4.99134 1.17888 4.86005 1.1432 4.68499C1.11942 4.50994 1.17293 4.36224 1.30374 4.24189L3.5869 2.14124C3.75338 1.99901 3.93175 1.95525 4.12202 2.00995L15.9838 4.61935L18.8377 1.99354C19.7415 1.16203 20.7641 0.571228 21.9057 0.221121C23.0473 -0.128987 23.9273 -0.0633419 24.5456 0.418056Z" fill="#0B417D"/>
</svg>
