<svg width="175" height="280" viewBox="0 0 175 280" fill="none" xmlns="http://www.w3.org/2000/svg">
<mask id="mask0_2018_581" style="mask-type:luminance" maskUnits="userSpaceOnUse" x="32" y="170" width="73" height="64">
<path d="M77.2546 233.35L32.0157 211.019L59.6363 170.116L104.875 192.447L77.2546 233.35Z" fill="white"/>
</mask>
<g mask="url(#mask0_2018_581)">
<path d="M55.1637 177.893L50.8796 202.232L41.3615 206.664C39.4605 207.546 35.1883 211.167 36.0571 212.801C36.926 214.435 42.5928 213.43 44.4937 212.548L54.0201 208.147L77.408 219.638C79.8876 220.862 82.9662 220.855 85.6383 219.604L86.6485 219.139L81.1876 215.372L82.597 214.702C82.7789 214.605 82.8792 214.413 82.7812 214.258L81.8742 212.552C81.7979 212.407 81.5533 212.34 81.3849 212.417L78.7264 213.649L72.3163 209.226L73.8316 208.528C74.0136 208.43 74.0921 208.228 74.0158 208.083L73.1089 206.377C73.0108 206.222 72.8015 206.145 72.6196 206.243L69.8768 207.513L64.0433 203.482L74.6912 198.537C76.9642 197.49 79.0928 196.185 81.0364 194.681L83.0527 196.934C84.0623 198.102 85.6795 198.499 86.9776 197.908L83.9216 192.169C83.9976 192.099 84.06 192.05 84.1143 191.969L85.5336 190.555C86.0438 190.057 85.6325 189.292 84.88 189.375L82.8341 189.57C82.7418 189.578 82.6494 189.586 82.557 189.594L79.5228 183.866C78.2112 184.477 77.569 185.9 77.9404 187.369L78.6804 190.224C76.2193 190.777 73.8237 191.575 71.5372 192.642L60.9029 197.568L60.9758 190.803L63.7186 189.533C63.9005 189.435 63.9791 189.233 63.9028 189.088L62.9958 187.382C62.8978 187.226 62.6749 187.17 62.5066 187.247L60.9912 187.945L61.0552 180.507L63.7138 179.275C63.9174 179.188 63.996 178.986 63.9115 178.811L63.0127 177.135C62.9283 176.96 62.7054 176.903 62.5017 176.99L61.1059 177.64L61.1576 171.293L60.1474 171.758C57.4888 172.99 55.6088 175.301 55.1637 177.893Z" fill="#0B417D" fill-opacity="0.5"/>
</g>
<path d="M89.5272 188.352C151.068 168.737 125.536 123.593 136.433 109.745C147.329 95.8964 174.193 95.5927 180.164 92.7524C195.059 85.667 199.074 78.6391 201.215 73.8012C203.413 68.8339 199.808 59.8176 196.792 50.2584" stroke="#0B417D" stroke-opacity="0.5" stroke-width="2" stroke-linecap="round" stroke-linejoin="round" stroke-dasharray="6 6"/>
</svg>
