<svg width="10" height="10" viewBox="0 0 10 10" fill="none" xmlns="http://www.w3.org/2000/svg">
<g clip-path="url(#clip0_2_1951)">
<path fill-rule="evenodd" clip-rule="evenodd" d="M0.118408 4.99986C0.118408 3.68948 0.638953 2.43278 1.56553 1.5062C2.4921 0.579627 3.74881 0.059082 5.05918 0.059082C6.36956 0.059082 7.62626 0.579627 8.55284 1.5062C9.47941 2.43278 9.99996 3.68948 9.99996 4.99986C9.99996 6.31023 9.47941 7.56694 8.55284 8.49351C7.62626 9.42009 6.36956 9.94063 5.05918 9.94063C3.74881 9.94063 2.4921 9.42009 1.56553 8.49351C0.638953 7.56694 0.118408 6.31023 0.118408 4.99986ZM4.77723 7.11451L7.6218 3.55847L7.10796 3.1474L4.68237 6.1784L2.96429 4.74689L2.54268 5.25282L4.77723 7.11451Z" fill="black" fill-opacity="0.8"/>
</g>
<defs>
<clipPath id="clip0_2_1951">
<rect width="9.88155" height="9.88155" fill="white" transform="translate(0.118408 0.059082)"/>
</clipPath>
</defs>
</svg>
