<svg width="60" height="15" viewBox="0 0 60 15" fill="none" xmlns="http://www.w3.org/2000/svg">
<path d="M15.7718 5.63086H21.7521V6.74415H19.3974V13.02H18.1068V6.74415H15.762L15.7718 5.63086ZM21.4959 7.67025H22.5993V8.70472H22.619C22.6585 8.55694 22.7274 8.41901 22.8259 8.28108C22.9245 8.14315 23.0427 8.01507 23.1905 7.9067C23.3284 7.78847 23.486 7.69981 23.6634 7.63084C23.8309 7.56188 24.0082 7.52247 24.1855 7.52247C24.3235 7.52247 24.422 7.53232 24.4712 7.53232C24.5205 7.54217 24.5796 7.55203 24.6289 7.55203V8.68502C24.5501 8.66532 24.4614 8.65546 24.3727 8.64561C24.2841 8.63576 24.2052 8.62591 24.1166 8.62591C23.9195 8.62591 23.7323 8.66531 23.555 8.74413C23.3777 8.82295 23.2299 8.94117 23.0919 9.08896C22.9639 9.24659 22.8555 9.43378 22.7767 9.66038C22.6979 9.88698 22.6585 10.153 22.6585 10.4486V12.9904H21.4762L21.4959 7.67025ZM30.0476 13.02H28.885V12.2712H28.8653C28.7175 12.5471 28.5008 12.754 28.2151 12.9214C27.9293 13.0889 27.6338 13.1677 27.3382 13.1677C26.6387 13.1677 26.1264 13.0003 25.8111 12.6456C25.4959 12.3008 25.3382 11.7687 25.3382 11.0692V7.67025H26.5205V10.951C26.5205 11.4239 26.6092 11.7589 26.7964 11.9461C26.9737 12.1431 27.2298 12.2416 27.555 12.2416C27.8013 12.2416 28.0082 12.2022 28.1756 12.1234C28.3431 12.0446 28.4811 11.9461 28.5796 11.818C28.688 11.6899 28.7569 11.5323 28.8062 11.3549C28.8554 11.1776 28.8752 10.9806 28.8752 10.7737V7.67025H30.0574V13.02H30.0476ZM32.0574 11.3057C32.0968 11.6505 32.2249 11.887 32.4515 12.0347C32.6781 12.1727 32.9539 12.2416 33.2692 12.2416C33.3776 12.2416 33.5057 12.2318 33.6436 12.2121C33.7815 12.1924 33.9194 12.1628 34.0377 12.1136C34.1657 12.0643 34.2643 11.9953 34.3431 11.8968C34.4219 11.7983 34.4613 11.6801 34.4515 11.5323C34.4416 11.3845 34.3923 11.2564 34.284 11.1579C34.1756 11.0594 34.0475 10.9904 33.8899 10.9215C33.7323 10.8623 33.5451 10.8131 33.3382 10.7737C33.1313 10.7343 32.9244 10.685 32.7076 10.6357C32.4909 10.5865 32.2741 10.5274 32.0672 10.4584C31.8603 10.3894 31.683 10.3008 31.5155 10.1727C31.3579 10.0545 31.22 9.90668 31.1313 9.71949C31.0328 9.5323 30.9835 9.31555 30.9835 9.03969C30.9835 8.74413 31.0525 8.50768 31.2003 8.31064C31.3382 8.11359 31.5254 7.95596 31.7421 7.83774C31.9589 7.71951 32.2052 7.63084 32.4712 7.58158C32.7372 7.53232 32.9933 7.51261 33.2298 7.51261C33.5057 7.51261 33.7717 7.54217 34.018 7.60129C34.2643 7.6604 34.5007 7.74907 34.6978 7.887C34.9047 8.01507 35.0721 8.19241 35.2002 8.39931C35.3381 8.6062 35.417 8.86236 35.4564 9.15792H34.2249C34.1657 8.87221 34.0377 8.68502 33.8406 8.5865C33.6337 8.48798 33.4071 8.43872 33.1411 8.43872C33.0623 8.43872 32.9539 8.44857 32.8456 8.45842C32.7273 8.47812 32.6288 8.49783 32.5204 8.53724C32.4219 8.57665 32.3333 8.63576 32.2643 8.70472C32.1953 8.77369 32.1559 8.87221 32.1559 8.99043C32.1559 9.13822 32.2052 9.24659 32.3037 9.33526C32.4022 9.42393 32.5303 9.49289 32.6978 9.56186C32.8554 9.62097 33.0426 9.67023 33.2495 9.70964C33.4564 9.74905 33.6731 9.79831 33.8899 9.84757C34.1066 9.89683 34.3135 9.95594 34.5204 10.0249C34.7273 10.0939 34.9145 10.1825 35.0721 10.3106C35.2298 10.4288 35.3677 10.5766 35.4662 10.754C35.5647 10.9313 35.614 11.1579 35.614 11.4141C35.614 11.7293 35.545 11.9953 35.3973 12.2219C35.2495 12.4387 35.0623 12.6259 34.8357 12.7638C34.6091 12.9017 34.3431 13.0003 34.0672 13.0692C33.7815 13.1283 33.5057 13.1677 33.2298 13.1677C32.8948 13.1677 32.5796 13.1283 32.2938 13.0495C32.0081 12.9707 31.752 12.8525 31.5451 12.7047C31.3382 12.5471 31.1707 12.3599 31.0525 12.1234C30.9342 11.8968 30.8653 11.621 30.8554 11.2958H32.0475V11.3057H32.0574ZM35.949 7.67025H36.8455V6.0545H38.0278V7.6604H39.0918V8.53724H38.0278V11.3944C38.0278 11.5224 38.0376 11.621 38.0475 11.7195C38.0573 11.8081 38.0869 11.887 38.1164 11.9461C38.1559 12.0052 38.215 12.0544 38.2839 12.084C38.3628 12.1136 38.4613 12.1333 38.5992 12.1333C38.678 12.1333 38.7667 12.1333 38.8455 12.1234C38.9243 12.1136 39.013 12.1037 39.0918 12.084V13.0003C38.9637 13.02 38.8357 13.0298 38.7076 13.0397C38.5795 13.0594 38.4613 13.0594 38.3233 13.0594C38.0081 13.0594 37.7618 13.0298 37.5746 12.9707C37.3874 12.9116 37.2396 12.8229 37.1312 12.7145C37.0229 12.5963 36.9539 12.4584 36.9145 12.2909C36.8751 12.1234 36.8554 11.9165 36.8455 11.6998V8.54709H35.949V7.65055V7.67025ZM39.9194 7.67025H41.0327V8.39931H41.0524C41.2199 8.08404 41.4465 7.86729 41.742 7.72936C42.0376 7.59143 42.3529 7.52247 42.7075 7.52247C43.1312 7.52247 43.4957 7.59143 43.811 7.74907C44.1262 7.89685 44.3824 8.09389 44.5893 8.3599C44.7962 8.61605 44.9538 8.92147 45.0524 9.2663C45.1509 9.61112 45.21 9.9855 45.21 10.3697C45.21 10.7343 45.1607 11.0791 45.0721 11.4141C44.9735 11.749 44.8356 12.0544 44.6484 12.3106C44.4612 12.5668 44.2248 12.7737 43.9292 12.9313C43.6336 13.0889 43.2987 13.1677 42.9046 13.1677C42.7371 13.1677 42.5598 13.148 42.3923 13.1185C42.2248 13.0889 42.0573 13.0397 41.8997 12.9707C41.742 12.9017 41.5943 12.8131 41.4662 12.7047C41.3282 12.5963 41.2199 12.4682 41.1312 12.3303H41.1115V15.0002H39.9292V7.67025H39.9194ZM44.0474 10.35C44.0474 10.1136 44.0179 9.87713 43.9489 9.65053C43.8898 9.42393 43.7913 9.22689 43.6632 9.04955C43.5351 8.87221 43.3775 8.73428 43.2002 8.62591C43.013 8.51753 42.7962 8.46827 42.5598 8.46827C42.0672 8.46827 41.6928 8.63576 41.4366 8.98058C41.1903 9.32541 41.0622 9.78846 41.0622 10.3599C41.0622 10.6357 41.0918 10.882 41.1608 11.1086C41.2297 11.3352 41.3184 11.5323 41.4563 11.6998C41.5844 11.8673 41.742 11.9953 41.9292 12.0939C42.1164 12.1924 42.3233 12.2416 42.5696 12.2416C42.8455 12.2416 43.0622 12.1825 43.2494 12.0742C43.4366 11.9658 43.5844 11.818 43.7125 11.6505C43.8307 11.4732 43.9194 11.2761 43.9686 11.0495C44.0179 10.8131 44.0474 10.5865 44.0474 10.35ZM46.1262 5.63086H47.3085V6.74415H46.1262V5.63086ZM46.1262 7.67025H47.3085V13.02H46.1262V7.67025ZM48.3627 5.63086H49.5449V13.02H48.3627V5.63086ZM53.1508 13.1677C52.7272 13.1677 52.3429 13.0988 52.008 12.951C51.673 12.8032 51.3971 12.616 51.1607 12.3697C50.9341 12.1234 50.7567 11.818 50.6385 11.4732C50.5203 11.1283 50.4513 10.7441 50.4513 10.3402C50.4513 9.93624 50.5104 9.56186 50.6385 9.21703C50.7567 8.87221 50.9341 8.57665 51.1607 8.32049C51.3873 8.07419 51.673 7.87714 52.008 7.73922C52.3429 7.60129 52.7272 7.52247 53.1508 7.52247C53.5744 7.52247 53.9587 7.59143 54.2937 7.73922C54.6286 7.87714 54.9045 8.07419 55.1409 8.32049C55.3675 8.56679 55.5449 8.87221 55.6631 9.21703C55.7813 9.56186 55.8503 9.93624 55.8503 10.3402C55.8503 10.754 55.7912 11.1283 55.6631 11.4732C55.535 11.818 55.3675 12.1136 55.1409 12.3697C54.9143 12.616 54.6286 12.8131 54.2937 12.951C53.9587 13.0889 53.5843 13.1677 53.1508 13.1677ZM53.1508 12.2318C53.407 12.2318 53.6434 12.1727 53.8306 12.0643C54.0276 11.9559 54.1754 11.8081 54.3035 11.6308C54.4316 11.4535 54.5202 11.2466 54.5794 11.0298C54.6385 10.8032 54.668 10.5766 54.668 10.3402C54.668 10.1136 54.6385 9.88698 54.5794 9.66038C54.5202 9.43378 54.4316 9.23674 54.3035 9.0594C54.1754 8.88206 54.0178 8.74413 53.8306 8.63576C53.6336 8.52739 53.407 8.46827 53.1508 8.46827C52.8946 8.46827 52.6582 8.52739 52.471 8.63576C52.274 8.74413 52.1262 8.89191 51.9981 9.0594C51.87 9.23674 51.7814 9.43378 51.7222 9.66038C51.6631 9.88698 51.6336 10.1136 51.6336 10.3402C51.6336 10.5766 51.6631 10.8032 51.7222 11.0298C51.7814 11.2564 51.87 11.4535 51.9981 11.6308C52.1262 11.8081 52.2838 11.9559 52.471 12.0643C52.668 12.1825 52.8946 12.2318 53.1508 12.2318ZM56.205 7.67025H57.1015V6.0545H58.2838V7.6604H59.3478V8.53724H58.2838V11.3944C58.2838 11.5224 58.2936 11.621 58.3035 11.7195C58.3133 11.8081 58.3429 11.887 58.3724 11.9461C58.4118 12.0052 58.471 12.0544 58.5399 12.084C58.6187 12.1136 58.7173 12.1333 58.8552 12.1333C58.934 12.1333 59.0227 12.1333 59.1015 12.1234C59.1803 12.1136 59.269 12.1037 59.3478 12.084V13.0003C59.2197 13.02 59.0916 13.0298 58.9636 13.0397C58.8355 13.0594 58.7173 13.0594 58.5793 13.0594C58.2641 13.0594 58.0178 13.0298 57.8306 12.9707C57.6434 12.9116 57.4956 12.8229 57.3872 12.7145C57.2788 12.5963 57.2099 12.4584 57.1705 12.2909C57.1311 12.1234 57.1114 11.9165 57.1015 11.6998V8.54709H56.205V7.65055V7.67025Z" fill="#303030"/>
<path d="M14.396 5.63012H8.98722L7.32221 0.487305L5.64735 5.63012L0.238525 5.62027L4.61287 8.8025L2.93801 13.9453L7.31236 10.7631L11.6867 13.9453L10.0217 8.8025L14.396 5.63012Z" fill="#00B67A"/>
<path d="M10.3944 9.96529L10.02 8.80273L7.32056 10.7633L10.3944 9.96529Z" fill="#005128"/>
</svg>
