<svg width="17" height="17" viewBox="0 0 17 17" fill="none" xmlns="http://www.w3.org/2000/svg">
<g clip-path="url(#clip0_2_1588)">
<path d="M7.12723 11.5349H7.95984C8.29736 11.5349 8.62275 11.4091 8.87252 11.1821L12.2165 8.14209M8.14509 9.15995L10.6897 9.49923M3.0558 5.4278L10.2351 1.99423C10.3165 1.95528 10.4048 1.93295 10.4949 1.92854C10.5851 1.92414 10.6751 1.93775 10.7599 1.96859C10.8447 1.99942 10.9225 2.04686 10.9888 2.10812C11.055 2.16938 11.1084 2.24324 11.1457 2.32537L12.5558 5.4278M4.07366 6.78495L4.07366 5.4278M4.07366 9.49923L4.07366 10.1778M4.07366 12.8921L4.07366 14.2492M2.71652 5.42794L13.5737 5.42794C14.3232 5.42794 14.9308 6.03556 14.9308 6.78509L14.9308 12.8922C14.9308 13.6418 14.3232 14.2494 13.5737 14.2494L2.71652 14.2494C1.96699 14.2494 1.35938 13.6418 1.35938 12.8922L1.35938 6.78509C1.35938 6.03556 1.96699 5.42794 2.71652 5.42794Z" stroke="black" stroke-opacity="0.4" stroke-width="1.55102" stroke-linecap="round" stroke-linejoin="round"/>
</g>
<defs>
<clipPath id="clip0_2_1588">
<rect width="16.2857" height="16.2857" fill="white"/>
</clipPath>
</defs>
</svg>
